<svg width="48" height="48" viewBox="0 0 48 48" fill="none" xmlns="http://www.w3.org/2000/svg">
<path d="M37.5 1.5H19.5C14.5294 1.5 10.5 5.52944 10.5 10.5V28.5C10.5 33.4706 14.5294 37.5 19.5 37.5H37.5C42.4706 37.5 46.5 33.4706 46.5 28.5V10.5C46.5 5.52944 42.4706 1.5 37.5 1.5Z" fill="#FFC1C1"/>
<path d="M18 24L22.5 28.5L18 33" stroke="#1D1D1D" stroke-width="1.5" stroke-linecap="round" stroke-linejoin="round"/>
<path d="M4.5 28.5C4.5 21.429 4.5 17.8935 6.696 15.6975C8.895 13.5 12.429 13.5 19.5 13.5C26.571 13.5 30.1065 13.5 32.3025 15.696C34.5 17.895 34.5 21.4305 34.5 28.5C34.5 35.5695 34.5 39.1065 32.3025 41.3025C30.108 43.5 26.571 43.5 19.5 43.5C12.429 43.5 8.8935 43.5 6.696 41.3025C4.5 39.108 4.5 35.571 4.5 28.5Z" stroke="#1D1D1D" stroke-width="1.5"/>
</svg>
