<svg width="48" height="48" viewBox="0 0 48 48" fill="none" xmlns="http://www.w3.org/2000/svg">
<path d="M37.5 1.5H19.5C14.5294 1.5 10.5 5.52944 10.5 10.5V28.5C10.5 33.4706 14.5294 37.5 19.5 37.5H37.5C42.4706 37.5 46.5 33.4706 46.5 28.5V10.5C46.5 5.52944 42.4706 1.5 37.5 1.5Z" fill="#C5EEDF"/>
<path d="M19.5 13.5V25.5M19.5 25.5L24 21M19.5 25.5L15 21" stroke="#A8A29E" stroke-width="1.5" stroke-linecap="round" stroke-linejoin="round"/>
<path d="M4.5 30H9.24039C10.5981 30 11.277 30 11.8738 30.3137C12.4705 30.6273 12.9123 31.2163 13.7959 32.3946L14.7041 33.6054C15.5877 34.7837 16.0294 35.3727 16.6263 35.6863C17.223 36 17.9019 36 19.2595 36H19.7405C21.0981 36 21.777 36 22.3737 35.6863C22.9706 35.3727 23.4123 34.7837 24.2959 33.6054L25.2041 32.3946C26.0877 31.2163 26.5294 30.6273 27.1263 30.3137C27.723 30 28.4019 30 29.7596 30H34.5" stroke="#A8A29E" stroke-width="1.5" stroke-linecap="round"/>
<path d="M27 13.5C29.4377 13.7413 31.0786 14.2867 32.3032 15.5191C34.5 17.73 34.5 21.288 34.5 28.4043C34.5 35.5204 34.5 39.0786 32.3032 41.2893C30.1066 43.5 26.571 43.5 19.5 43.5C12.4289 43.5 8.89339 43.5 6.6967 41.2893C4.5 39.0786 4.5 35.5204 4.5 28.4043C4.5 21.288 4.5 17.73 6.6967 15.5191C7.92141 14.2867 9.56229 13.7413 12 13.5" stroke="#A8A29E" stroke-width="1.5" stroke-linecap="round"/>
</svg>
