<svg width="58" height="58" viewBox="0 0 58 58" fill="none" xmlns="http://www.w3.org/2000/svg">
<path d="M2.67714 11.9637C2.67714 11.9637 2.38696 20.0887 2.38696 20.6691C2.38696 21.2494 4.12803 19.2182 4.12803 19.2182L8.19053 14.8655L14.5745 12.8343H24.4405H34.3066H42.4316L47.945 13.7048L52.0075 16.3164L56.07 21.5396V19.7986L55.4896 14.8655L54.3289 9.35213L51.137 4.99945L45.6236 2.9682L35.4673 2.09766L13.4138 2.67802L6.44946 5.28963L2.67714 11.9637Z" fill="#F44769"/>
<path d="M2 29.0833C2 16.3161 2 9.93252 5.96627 5.96626C9.93253 2 16.3161 2 29.0833 2C41.8505 2 48.2341 2 52.2004 5.96626C56.1667 9.93252 56.1667 16.3161 56.1667 29.0833" stroke="#ECDFCC" stroke-width="2"/>
<path d="M2 34.5026C2 26.9186 2 23.1265 3.47596 20.2298C4.77424 17.6818 6.84585 15.6102 9.39388 14.3119C12.2906 12.8359 16.0826 12.8359 23.6667 12.8359H34.5C42.084 12.8359 45.8761 12.8359 48.7728 14.3119C51.3208 15.6102 53.3924 17.6818 54.6907 20.2298C56.1667 23.1265 56.1667 26.9186 56.1667 34.5026C56.1667 42.0867 56.1667 45.8787 54.6907 48.7754C53.3924 51.3234 51.3208 53.395 48.7728 54.6933C45.8761 56.1693 42.0841 56.1693 34.5 56.1693H23.6667C16.0826 56.1693 12.2906 56.1693 9.39388 54.6933C6.84585 53.395 4.77424 51.3234 3.47596 48.7754C2 45.8787 2 42.0867 2 34.5026Z" stroke="#ECDFCC" stroke-width="2"/>
<path d="M29.0833 42.625V26.375M29.0833 26.375L35.8542 33.1458M29.0833 26.375L22.3125 33.1458" stroke="#ECDFCC" stroke-width="2" stroke-linecap="round" stroke-linejoin="round"/>
</svg>
