<svg width="57" height="56" viewBox="0 0 57 56" fill="none" xmlns="http://www.w3.org/2000/svg">
<path d="M23.1639 2H28.5504C33.2617 1.99996 36.8963 2.00192 39.7206 2.37402C42.6027 2.75374 44.7773 3.53365 46.4675 5.19003C48.155 6.84364 48.947 8.96649 49.3332 11.7813C49.7122 14.5441 49.7144 18.101 49.7143 22.7195V32.9948C49.7144 37.6132 49.7122 41.1702 49.3332 43.933C48.947 46.7478 48.155 48.8706 46.4675 50.5243C44.7773 52.1806 42.6027 52.9606 39.7206 53.3403C36.8963 53.7124 33.2617 53.7143 28.5504 53.7143H23.1639C18.4526 53.7143 14.818 53.7124 11.9937 53.3403C9.11165 52.9606 6.93708 52.1806 5.24681 50.5243C3.55937 48.8706 2.76731 46.7478 2.38113 43.933C2.00208 41.1702 1.99996 37.6133 2 32.9948V22.7195C1.99996 18.101 2.00208 14.5441 2.38113 11.7813C2.76731 8.9665 3.55937 6.84364 5.24682 5.19003C6.93708 3.53365 9.11165 2.75374 11.9937 2.37402C14.818 2.00192 18.4525 1.99996 23.1639 2Z" fill="#ECDFCC" stroke="#1D1D1D" stroke-width="2"/>
<path d="M19.4287 28H13.143C12.8274 28 12.5715 28.2558 12.5715 28.5714V28.5714C12.5715 28.887 12.8274 29.1429 13.143 29.1429H19.4287C19.7443 29.1429 20.0001 28.887 20.0001 28.5714C20.0001 28.2558 19.7443 28 19.4287 28Z" fill="#1D1D1D"/>
<path d="M30.2858 14.2852H13.143C12.8274 14.2852 12.5715 14.541 12.5715 14.8566V14.8566C12.5715 15.1722 12.8274 15.428 13.143 15.428H30.2858C30.6014 15.428 30.8572 15.1722 30.8572 14.8566C30.8572 14.541 30.6014 14.2852 30.2858 14.2852Z" fill="#1D1D1D"/>
<path d="M24.5715 21.7148H13.143C12.8274 21.7148 12.5715 21.9707 12.5715 22.2863V22.2863C12.5715 22.6019 12.8274 22.8577 13.143 22.8577H24.5715C24.8871 22.8577 25.1429 22.6019 25.1429 22.2863C25.1429 21.9707 24.8871 21.7148 24.5715 21.7148Z" fill="#1D1D1D"/>
<path d="M45.0516 16.295L46.2874 15.0591C48.335 13.0115 51.6548 13.0115 53.7024 15.0591C55.7501 17.1067 55.7501 20.4266 53.7024 22.4742L52.4666 23.71L41.105 35.0717C40.3354 35.8412 39.9506 36.226 39.5264 36.5569C39.0259 36.9473 38.4844 37.2819 37.9114 37.555C37.4257 37.7865 36.9095 37.9585 35.8771 38.3027L32.5715 39.4045L31.502 39.761L30.4326 40.1175C29.9245 40.2869 29.3644 40.1546 28.9857 39.7759C28.607 39.3972 28.4747 38.8371 28.6441 38.329L29.0006 37.2595L29.357 36.1901L30.4589 32.8845C30.803 31.8521 30.9751 31.3358 31.2066 30.8501C31.4797 30.2772 31.8143 29.7357 32.2047 29.2352C32.5356 28.811 32.9204 28.4262 33.6899 27.6566L45.0516 16.295Z" fill="#5F30E2"/>
<path d="M45.0516 16.295L46.2874 15.0591C48.335 13.0115 51.6548 13.0115 53.7024 15.0591C55.7501 17.1067 55.7501 20.4266 53.7024 22.4742L52.4666 23.71M45.0516 16.295C45.0516 16.295 45.2061 18.9211 47.5232 21.2383C49.8404 23.5555 52.4666 23.71 52.4666 23.71M45.0516 16.295L33.6899 27.6566C32.9204 28.4262 32.5356 28.811 32.2047 29.2352C31.8143 29.7357 31.4797 30.2772 31.2066 30.8501C30.9751 31.3358 30.803 31.8521 30.4589 32.8845L29.357 36.1901L29.0006 37.2595M52.4666 23.71L41.105 35.0717C40.3354 35.8412 39.9506 36.226 39.5264 36.5569C39.0259 36.9473 38.4844 37.2819 37.9115 37.555C37.4257 37.7865 36.9095 37.9585 35.8771 38.3027L32.5715 39.4045L31.502 39.761M29.0006 37.2595L28.6441 38.329C28.4747 38.8371 28.607 39.3972 28.9857 39.7759C29.3644 40.1546 29.9245 40.2869 30.4326 40.1175L31.502 39.761M29.0006 37.2595L31.502 39.761" stroke="#1D1D1D" stroke-width="2"/>
</svg>
