<svg width="57" height="57" viewBox="0 0 57 57" fill="none" xmlns="http://www.w3.org/2000/svg">
<path d="M1 20.2C1 11.149 1 6.62355 3.81178 3.81178C6.62355 1 11.149 1 20.2 1H29.8C38.851 1 43.3764 1 46.1882 3.81178C49 6.62355 49 11.149 49 20.2V22.6C49 29.3882 49 32.7823 46.8912 34.8912C44.7823 37 41.3882 37 34.6 37H15.4C8.61177 37 5.21766 37 3.10883 34.8912C1 32.7823 1 29.3882 1 22.6V20.2Z" fill="#009B63" stroke="#1D1D1D" stroke-width="1.6"/>
<path d="M34 49H15" stroke="#1D1D1D" stroke-width="1.6" stroke-linecap="round"/>
<path d="M25 37.0009V49" stroke="#1D1D1D" stroke-width="1.6" stroke-linecap="round"/>
<path d="M49 27H1" stroke="#1D1D1D" stroke-width="1.6" stroke-linecap="round"/>
<path d="M25 26.8875C25 21.6115 25 18.9735 25.6292 18.086C26.2584 17.1985 28.7639 16.3494 33.7749 14.6513L34.7295 14.3278C37.3416 13.4426 38.6477 13 40 13C41.3523 13 42.6584 13.4426 45.2705 14.3278L46.2251 14.6513C51.2361 16.3494 53.7416 17.1985 54.3708 18.086C55 18.9735 55 21.6115 55 26.8875C55 27.6844 55 28.5486 55 29.4857C55 38.7886 47.9351 43.3031 43.5024 45.22C42.3 45.74 41.6988 46 40 46C38.3012 46 37.7 45.74 36.4976 45.22C32.0649 43.3031 25 38.7886 25 29.4857C25 28.5486 25 27.6844 25 26.8875Z" fill="white" stroke="#1D1D1D" stroke-width="1.6"/>
<path d="M34 30.3L37.4286 34.5L46 24" stroke="#009B63" stroke-width="1.5" stroke-linecap="round" stroke-linejoin="round"/>
</svg>
