<svg width="56" height="56" viewBox="0 0 56 56" fill="none" xmlns="http://www.w3.org/2000/svg">
<path d="M3.23068 40.7782C6.46137 44 11.6611 44 22.0605 44C32.4599 44 37.6596 44 40.8903 40.7782C44.121 37.5564 43.9994 23.5709 43.9994 13.2C43.7582 8.37441 43.0384 5.36405 40.8903 3.22183C37.6596 0 32.4599 0 22.0605 0C11.6611 0 6.46137 0 3.23068 3.22183C0 6.44365 0 11.6291 0 22C0 32.3709 0 37.5564 3.23068 40.7782Z" fill="#009B63"/>
<path d="M17.937 51.0711C20.874 54 25.601 54 35.055 54C44.509 54 49.236 54 52.173 51.0711C55.11 48.1421 54.9995 35.4281 54.9995 26C54.7802 21.6131 54.1258 18.8764 52.173 16.9289C49.236 14 44.509 14 35.055 14C25.601 14 20.874 14 17.937 16.9289C15 19.8579 15 24.5719 15 34C15 43.4281 15 48.1421 17.937 51.0711Z" fill="white" stroke="#1D1D1D" stroke-width="1.6" stroke-linecap="round"/>
<path d="M35.0001 30.6666V37.3333M32.1127 32.3333L37.8862 35.6666M37.8858 32.3333L32.1123 35.6666" stroke="#009B63" stroke-width="1.5" stroke-linecap="round"/>
<path d="M26.2208 30.6666V37.3333M23.3334 32.3333L29.1069 35.6666M29.1065 32.3333L23.333 35.6666" stroke="#009B63" stroke-width="1.5" stroke-linecap="round"/>
<path d="M43.7802 30.6666V37.3333M40.8928 32.3333L46.6663 35.6666M46.6659 32.3333L40.8924 35.6666" stroke="#009B63" stroke-width="1.5" stroke-linecap="round"/>
</svg>
