<svg width="56" height="56" viewBox="0 0 56 56" fill="none" xmlns="http://www.w3.org/2000/svg">
<path d="M3.23068 40.7782C6.46137 44 11.6611 44 22.0605 44C32.4599 44 37.6596 44 40.8903 40.7782C44.121 37.5564 43.9994 23.5709 43.9994 13.2C43.7582 8.37441 43.0384 5.36405 40.8903 3.22183C37.6596 0 32.4599 0 22.0605 0C11.6611 0 6.46137 0 3.23068 3.22183C0 6.44365 0 11.6291 0 22C0 32.3709 0 37.5564 3.23068 40.7782Z" fill="#F44769"/>
<path d="M17.937 51.0711C20.874 54 25.601 54 35.055 54C44.509 54 49.236 54 52.173 51.0711C55.11 48.1421 54.9995 35.4281 54.9995 26C54.7802 21.6131 54.1258 18.8764 52.173 16.9289C49.236 14 44.509 14 35.055 14C25.601 14 20.874 14 17.937 16.9289C15 19.8579 15 24.5719 15 34C15 43.4281 15 48.1421 17.937 51.0711Z" fill="white" stroke="#1D1D1D" stroke-width="1.6" stroke-linecap="round"/>
<path d="M37.3601 26.0787L38.2869 25.1518C39.8226 23.6161 42.3125 23.6161 43.8482 25.1518C45.3839 26.6875 45.3839 29.1774 43.8482 30.7131L42.9213 31.6399M37.3601 26.0787C37.3601 26.0787 37.4759 28.0483 39.2138 29.7862C40.9517 31.5241 42.9213 31.6399 42.9213 31.6399M37.3601 26.0787L28.8388 34.5999C28.2617 35.1771 27.9731 35.4656 27.7249 35.7838C27.4321 36.1592 27.1811 36.5653 26.9763 36.995C26.8027 37.3593 26.6737 37.7465 26.4156 38.5208L25.3218 41.8021M42.9213 31.6399L34.4001 40.1612C33.8229 40.7383 33.5344 41.0269 33.2162 41.2751C32.8408 41.5679 32.4347 41.8189 32.005 42.0237C31.6407 42.1973 31.2535 42.3263 30.4792 42.5844L27.1979 43.6782M27.1979 43.6782L26.3958 43.9456C26.0148 44.0726 25.5947 43.9734 25.3106 43.6894C25.0266 43.4053 24.9274 42.9852 25.0544 42.6042L25.3218 41.8021M27.1979 43.6782L25.3218 41.8021" stroke="#F44769" stroke-width="1.5"/>
</svg>
