<svg width="56" height="56" viewBox="0 0 56 56" fill="none" xmlns="http://www.w3.org/2000/svg">
<rect width="56" height="56" rx="8" fill="#F44769"/>
<path d="M21.333 16.332C21.333 19.0935 19.0944 21.332 16.333 21.332C13.5716 21.332 11.333 19.0935 11.333 16.332C11.333 13.5706 13.5716 11.332 16.333 11.332C19.0944 11.332 21.333 13.5706 21.333 16.332Z" stroke="white" stroke-width="1.6"/>
<path d="M44.667 16.332C44.667 19.0935 42.4284 21.332 39.667 21.332C36.9056 21.332 34.667 19.0935 34.667 16.332C34.667 13.5706 36.9056 11.332 39.667 11.332C42.4284 11.332 44.667 13.5706 44.667 16.332Z" stroke="white" stroke-width="1.6"/>
<path d="M21.333 39.668C21.333 42.4294 19.0944 44.668 16.333 44.668C13.5716 44.668 11.333 42.4294 11.333 39.668C11.333 36.9065 13.5716 34.668 16.333 34.668C19.0944 34.668 21.333 36.9065 21.333 39.668Z" stroke="white" stroke-width="1.6"/>
<path d="M44.667 39.668C44.667 42.4294 42.4284 44.668 39.667 44.668C36.9056 44.668 34.667 42.4294 34.667 39.668C34.667 36.9065 36.9056 34.668 39.667 34.668C42.4284 34.668 44.667 36.9065 44.667 39.668Z" stroke="white" stroke-width="1.6"/>
<path d="M21.333 39.668H34.6663" stroke="white" stroke-width="1.6" stroke-linecap="round"/>
<path d="M21.333 16.332H34.6663" stroke="white" stroke-width="1.6" stroke-linecap="round"/>
<path d="M39.667 34.668L39.667 21.3346" stroke="white" stroke-width="1.6" stroke-linecap="round"/>
<path d="M16.333 34.668L16.333 21.3346" stroke="white" stroke-width="1.6" stroke-linecap="round"/>
</svg>
